<svg width="70" height="70" viewBox="0 0 70 70" fill="none" xmlns="http://www.w3.org/2000/svg">
<path d="M31.3539 7.14561C33.3664 5.42477 36.6622 5.42477 38.7039 7.14561L43.3123 11.1126C44.1873 11.8709 45.8205 12.4833 46.9872 12.4833H51.9456C55.0372 12.4833 57.5747 15.0206 57.5747 18.1123V23.0708C57.5747 24.2083 58.1872 25.8709 58.9455 26.7459L62.9123 31.3541C64.6331 33.3666 64.6331 36.6625 62.9123 38.7041L58.9455 43.3123C58.1872 44.1873 57.5747 45.8207 57.5747 46.9874V51.9459C57.5747 55.0376 55.0372 57.5749 51.9456 57.5749H46.9872C45.8497 57.5749 44.1873 58.1873 43.3123 58.9456L38.7039 62.9123C36.6914 64.6331 33.3956 64.6331 31.3539 62.9123L26.7456 58.9456C25.8706 58.1873 24.2372 57.5749 23.0706 57.5749H18.0247C14.933 57.5749 12.3956 55.0376 12.3956 51.9459V46.9582C12.3956 45.8207 11.7831 44.1873 11.0539 43.3123L7.11641 38.6749C5.42474 36.6624 5.42474 33.3958 7.11641 31.3833L11.0539 26.7459C11.7831 25.8709 12.3956 24.2375 12.3956 23.1V18.1123C12.3956 15.0206 14.933 12.4833 18.0247 12.4833H23.0706C24.2081 12.4833 25.8706 11.8709 26.7456 11.1126L31.3539 7.14561Z" stroke="white" stroke-width="1.5" stroke-linecap="round" stroke-linejoin="round"/>
<path d="M28.8455 43.225L33.0746 46.4917C33.6288 47.0459 34.8538 47.3084 35.6705 47.3084H40.833C42.4663 47.3084 44.2454 46.0835 44.6538 44.4502L47.9204 34.475C48.5913 32.5792 47.3663 30.9168 45.3246 30.9168H39.8705C39.0538 30.9168 38.383 30.2461 38.4997 29.2836L39.1704 24.9086C39.4329 23.6836 38.6163 22.3127 37.3913 21.9044C36.3121 21.4961 34.9413 22.0501 34.3871 22.8668L28.7871 31.1792" stroke="white" stroke-width="1.5" stroke-miterlimit="10"/>
<path d="M21.875 43.2248V29.8666C21.875 27.9416 22.6917 27.2708 24.6167 27.2708H25.9875C27.8833 27.2708 28.7292 27.9416 28.7292 29.8666V43.2248C28.7292 45.1207 27.9125 45.8207 25.9875 45.8207H24.6167C22.6917 45.8207 21.875 45.1498 21.875 43.2248Z" stroke="white" stroke-width="1.5" stroke-linecap="round" stroke-linejoin="round"/>
</svg>
