<svg width="70" height="70" viewBox="0 0 70 70" fill="none" xmlns="http://www.w3.org/2000/svg">
<path d="M55.4173 26.2499C55.4173 30.4791 54.1632 34.3583 52.0048 37.5958C48.8548 42.2625 43.8673 45.5583 38.0632 46.4041C37.0715 46.5791 36.0507 46.6666 35.0007 46.6666C33.9507 46.6666 32.9298 46.5791 31.9382 46.4041C26.134 45.5583 21.1465 42.2625 17.9965 37.5958C15.8382 34.3583 14.584 30.4791 14.584 26.2499C14.584 14.9624 23.7132 5.83325 35.0007 5.83325C46.2882 5.83325 55.4173 14.9624 55.4173 26.2499Z" stroke="white" stroke-width="1.5" stroke-linecap="round" stroke-linejoin="round"/>
<path d="M61.9793 53.8709L57.1668 55.0083C56.0876 55.2708 55.2418 56.0875 55.0085 57.1667L53.9876 61.4542C53.4335 63.7875 50.4585 64.4876 48.9127 62.6501L35.0002 46.6667L21.0876 62.6792C19.5418 64.5167 16.5668 63.8166 16.0126 61.4833L14.9918 57.1958C14.7293 56.1166 13.8835 55.2708 12.8335 55.0375L8.02098 53.9001C5.80431 53.3751 5.01681 50.6041 6.62098 49L17.996 37.625C21.146 42.2917 26.1335 45.5876 31.9376 46.4334C32.9293 46.6084 33.9502 46.6959 35.0002 46.6959C36.0502 46.6959 37.071 46.6084 38.0627 46.4334C43.8668 45.5876 48.8543 42.2917 52.0043 37.625L63.3793 49C64.9835 50.575 64.196 53.3459 61.9793 53.8709Z" stroke="white" stroke-width="1.5" stroke-linecap="round" stroke-linejoin="round"/>
<path d="M36.6908 17.4417L38.4116 20.8834C38.6449 21.3501 39.2574 21.8167 39.8116 21.9042L42.9324 22.4292C44.9158 22.7501 45.3824 24.2084 43.9533 25.6376L41.5324 28.0584C41.1241 28.4667 40.8908 29.2542 41.0366 29.8376L41.7366 32.8417C42.2908 35.2042 41.0366 36.1375 38.9366 34.8834L36.0199 33.1625C35.4949 32.8417 34.6199 32.8417 34.0949 33.1625L31.1783 34.8834C29.0783 36.1084 27.8241 35.2042 28.3783 32.8417L29.0783 29.8376C29.1949 29.2834 28.9908 28.4667 28.5824 28.0584L26.1616 25.6376C24.7324 24.2084 25.1991 22.7792 27.1824 22.4292L30.3033 21.9042C30.8283 21.8167 31.4408 21.3501 31.6741 20.8834L33.3949 17.4417C34.2408 15.5751 35.7574 15.5751 36.6908 17.4417Z" stroke="white" stroke-width="1.5" stroke-linecap="round" stroke-linejoin="round"/>
</svg>
