<svg width="18" height="14" viewBox="0 0 18 14" fill="none" xmlns="http://www.w3.org/2000/svg">
<path d="M0.798096 6.71989L4.70648 8.09575L6.23007 12.7236C6.29632 13.0363 6.69378 13.0988 6.95876 12.9112L9.14478 11.2227C9.34352 11.0351 9.67474 11.0351 9.93972 11.2227L13.8481 13.9118C14.1131 14.0995 14.5105 13.9744 14.5768 13.6617L17.4915 0.528547C17.5577 0.215853 17.2265 -0.0968385 16.8953 0.0282391L0.798096 5.90689C0.400635 6.03196 0.400635 6.59481 0.798096 6.71989ZM6.03135 7.40781L13.7156 2.96756C13.8481 2.90502 13.9806 3.09264 13.8481 3.15518L7.55494 8.72113C7.35621 8.90875 7.15748 9.1589 7.15748 9.4716L6.95876 10.9725C6.95876 11.1601 6.62753 11.2227 6.56129 10.9725L5.76636 8.22082C5.56763 7.90813 5.70013 7.53289 6.03135 7.40781Z" fill="white"/>
</svg>
