<svg width="820" height="278" viewBox="0 0 820 278" fill="none" xmlns="http://www.w3.org/2000/svg">
<path d="M649.351 113.42C686.504 143.48 770.978 120.146 714.445 50.2235C705.175 38.7586 692.437 17.1564 679.362 -10.5414C667.385 -35.9141 698.965 -71.8138 692.943 -110.056C683.497 -170.031 593.137 -163.465 589.481 -195.749C584.693 -238.032 621.294 -278.709 635.549 -311.585C648.968 -342.534 647.795 -379.084 636.961 -411.103C617.954 -467.276 569.212 -509.502 517.363 -483.068C491.408 -469.836 464.674 -439.397 440.502 -384.889C429.694 -360.518 419.712 -339.812 410.321 -322.308C386.151 -277.257 364.418 -338.266 318.499 -314.45C292.335 -300.88 293.199 -237.877 258.371 -251.641C233.606 -261.429 204.501 -273.849 167.997 -282.818C103.892 -298.57 48.9435 -274.614 74.2548 -213.924C86.2033 -185.274 116.037 -148.439 171.235 -103.73C206.558 -75.1195 170.729 -56.1608 193.879 -6.72887C217.029 42.7031 262.622 45.3402 249.949 78.6477L249.696 79.3147C240.035 104.7 229.732 131.775 236.68 168.342C242.665 199.84 258.53 225.299 278.325 240.472C299.51 256.711 325.196 261.167 348.09 248.633C371.062 236.057 391.223 206.376 401.205 154.329C407.787 120.014 451.938 165.527 484.259 139.609C516.58 113.69 491.844 59.4613 521.693 62.0985C573.544 66.6793 605.839 78.2142 649.351 113.42Z" stroke="white"/>
<path d="M692.445 40.4853C743.632 104.299 666.425 125.6 632.364 98.0433C590.699 64.3673 560.558 54.7125 512.673 51.7318C485.419 49.4938 507.82 99.1148 478.292 122.962C448.764 146.809 408.457 105.647 402.309 136.955C392.908 184.482 374.208 211.426 353.014 222.644C332.046 233.943 308.512 229.688 289.183 214.652C271.118 200.585 256.737 177.098 251.586 148.091C246.477 113.026 252.625 85.8159 260.896 61.694C272.221 31.0889 230.84 28.3977 210.043 -16.7672C189.246 -61.9321 222.274 -79.2703 190.579 -105.191C140.863 -145.743 114.122 -179.084 103.594 -205.014C80.8041 -260.166 131.191 -281.933 189.917 -267.726C223.528 -259.69 250.416 -248.668 273.219 -240.314C305.037 -228.034 304.39 -285.643 328.346 -298.328C370.294 -320.375 390.243 -265.161 412.414 -306.373C421.138 -322.522 430.404 -341.512 440.417 -363.777C463.13 -413.737 488.13 -440.847 512.009 -452.109C559.26 -475.939 603.649 -437.284 620.941 -385.94C630.797 -356.573 631.821 -323.085 619.518 -294.712C606.03 -263.604 572.482 -225.967 577.501 -186.175C580.998 -156.46 663.507 -162.098 672.392 -107.193C678.163 -72.0602 649.718 -39.0572 660.778 -15.6264C672.817 9.87764 684.259 29.857 692.445 40.4853Z" stroke="white"/>
<path d="M669.487 30.3566C715.181 87.8409 645.371 107.11 614.49 82.1617C574.782 50.1478 546.859 42.4236 503.033 41.0879C478.428 39.2767 498.411 84.1324 471.713 105.863C445.015 127.595 408.664 90.9311 402.936 119.149C394.097 162.03 376.873 186.175 357.488 196.02C338.477 206.069 317.146 202.046 299.72 188.271C283.431 175.365 270.58 153.928 266.298 127.498C263.127 94.36 264.889 67.2463 271.703 44.6449C281.683 16.8204 244.596 14.1155 226.227 -26.6384C207.859 -67.3922 238.035 -83.0873 210.05 -106.221C165.943 -142.463 142.373 -172.195 133.306 -195.325C113.123 -244.765 158.869 -264.321 212.091 -251.747C242.74 -244.693 267.351 -235.122 288.141 -228.241C316.88 -217.504 316.497 -269.556 338.209 -281.338C376.123 -301.586 394.206 -252.339 414.369 -289.614C422.422 -304.368 430.968 -321.596 440.186 -341.701C461.434 -386.989 484.673 -410.714 506.439 -419.994C549.02 -441.191 588.94 -406.251 604.443 -359.897C613.28 -333.273 614.126 -302.942 602.94 -277.216C590.219 -247.953 559.758 -213.437 564.965 -176.255C568.273 -149.197 642.777 -153.957 651.04 -104.284C656.52 -72.3656 631.239 -42.3308 641.342 -20.9175C652.301 2.31062 662.409 20.6015 669.487 30.3566Z" stroke="white"/>
<path d="M647.492 20.6153C687.839 71.9916 625.299 89.2258 597.512 66.78C559.651 36.2971 533.881 30.4535 494.022 30.7177C472.012 29.3049 489.66 69.5532 465.757 89.2114C441.853 108.87 409.347 76.5569 404.054 101.767C395.798 140.128 380.036 161.535 362.429 170.021C345.347 178.835 326.169 175.012 310.6 162.439C296.042 150.638 284.675 131.174 281.227 107.235C279.96 75.9178 277.318 48.8261 282.671 27.6829C291.3 2.56199 258.429 -0.198635 242.414 -36.6855C226.399 -73.1724 253.772 -87.2463 229.417 -107.691C190.795 -139.777 170.318 -166.016 162.672 -186.427C145.011 -230.327 186.192 -247.694 234.031 -236.664C261.788 -230.543 284.182 -222.369 303.01 -216.921C328.738 -207.668 328.572 -254.325 348.074 -265.22C382.014 -283.699 398.313 -240.248 416.476 -273.682C423.862 -287.081 431.69 -302.593 440.113 -320.591C459.901 -361.331 481.403 -381.726 501.091 -389.035C539.071 -407.625 574.636 -376.256 588.425 -334.732C596.284 -310.76 596.982 -283.492 586.913 -260.342C574.958 -232.846 547.553 -201.372 552.99 -166.683C556.14 -142.194 622.789 -146.024 630.492 -101.421C635.721 -72.6135 613.579 -45.4771 622.764 -26.006C632.687 -4.97187 641.498 11.6965 647.492 20.6153Z" stroke="white"/>
<path d="M624.948 11.1917C659.932 56.466 604.76 71.6097 580.086 51.6558C544.098 22.6851 520.51 18.7063 484.671 20.5419C465.286 19.5119 480.605 55.1474 459.544 72.7057C438.482 90.264 409.841 62.2935 405.008 84.4802C397.375 118.297 383.113 136.943 367.313 144.052C352.188 151.613 335.187 147.978 321.485 136.6C308.668 125.899 298.786 108.408 296.16 86.9681C296.774 57.4837 289.707 30.4174 293.574 10.7445C300.822 -11.6552 272.208 -14.4953 258.54 -46.7101C244.873 -78.9248 269.397 -91.35 248.689 -109.114C215.579 -137.058 198.206 -159.805 191.976 -177.493C176.826 -215.846 213.374 -230.982 255.776 -221.466C280.607 -216.26 300.761 -209.472 317.605 -205.445C340.294 -197.661 340.31 -238.901 357.567 -248.891C387.474 -265.565 402.001 -227.92 418.114 -257.485C424.813 -269.516 431.901 -283.299 439.505 -299.176C457.774 -335.332 477.498 -352.371 495.076 -357.687C528.389 -373.634 559.576 -345.823 571.663 -309.138C578.552 -287.823 579.122 -263.629 570.201 -243.075C559.05 -217.367 534.76 -188.969 540.448 -156.781C543.455 -134.87 602.156 -137.717 609.324 -98.1995C614.317 -72.5113 595.364 -48.302 603.635 -30.7747C612.525 -11.9364 620.04 3.10869 624.948 11.1917Z" stroke="white"/>
<path d="M601.951 0.973023C631.511 40.0354 583.723 53.1158 562.196 35.7111C528.131 8.3359 506.746 6.24975 474.948 9.68609C458.2 9.05892 471.148 40.0068 452.924 55.4557C434.699 70.9045 409.967 47.3502 405.576 66.4806C398.539 95.7034 385.766 111.571 371.777 117.306C358.611 123.616 343.8 120.191 331.984 110.041C320.925 100.471 312.55 84.9914 310.766 66.09C313.286 38.4902 301.829 11.5014 304.227 -6.67164C310.112 -26.3193 285.773 -29.2063 274.491 -57.0813C263.21 -84.9564 284.88 -95.735 267.849 -110.768C240.296 -134.49 226.056 -153.692 221.262 -168.62C208.669 -201.348 240.578 -214.263 277.508 -206.316C299.394 -202.057 317.287 -196.684 332.134 -194.101C351.764 -187.822 351.999 -223.575 367.012 -232.659C392.884 -247.529 405.594 -215.766 419.675 -241.427C425.694 -252.076 432.051 -264.113 438.845 -277.85C455.62 -309.379 473.568 -323.05 489.033 -326.385C517.676 -339.693 544.441 -315.517 554.784 -283.745C560.679 -265.129 561.097 -244.051 553.31 -226.118C542.946 -202.231 521.759 -176.935 527.664 -147.309C530.505 -128.016 581.228 -129.932 587.817 -95.5728C592.547 -73.052 576.77 -51.7923 584.105 -36.2464C591.938 -19.6442 598.139 -6.25543 601.951 0.973023Z" stroke="white"/>
<path d="M579.967 -8.77454C604.173 24.1757 563.668 35.2153 545.237 20.3138C513.017 -5.53734 493.786 -5.74003 465.961 -0.700837C451.813 -0.929853 462.424 25.4074 446.999 38.7806C431.575 52.1537 410.693 32.9539 406.738 49.0734C400.286 73.7711 388.979 86.8957 376.771 91.2686C365.536 96.3405 352.881 93.1142 342.924 84.1658C333.598 75.7014 326.708 62.1946 325.76 45.7858C330.185 20.0047 314.309 -6.97243 315.24 -23.6884C319.771 -40.6301 299.654 -43.5755 290.728 -67.1802C281.802 -90.7849 300.665 -99.939 287.269 -112.281C265.209 -131.844 254.067 -147.549 250.696 -159.755C240.626 -186.938 267.962 -197.658 299.503 -191.255C318.493 -187.928 334.166 -183.954 347.048 -182.806C363.663 -178.011 364.113 -208.364 376.912 -216.561C398.802 -229.658 409.729 -203.698 421.805 -225.514C427.155 -234.806 432.793 -245.125 438.79 -256.753C454.1 -283.727 470.31 -294.062 483.694 -295.419C507.727 -306.115 530.132 -285.511 538.761 -258.573C543.678 -242.611 543.949 -224.599 537.282 -209.245C527.687 -187.124 509.562 -164.872 515.702 -137.737C518.386 -121.015 561.241 -121.995 567.274 -92.7098C571.754 -73.3013 559.123 -54.9433 565.541 -41.3399C572.338 -26.9326 577.24 -15.1666 579.967 -8.77454Z" stroke="white"/>
<path d="M557.446 -18.2092C576.286 8.62922 543.157 17.5754 527.843 5.16744C497.498 -19.1868 480.463 -17.5253 456.674 -10.9142C445.154 -10.7597 453.436 10.9586 440.858 22.2298C428.28 33.5011 411.269 18.6491 407.777 31.7407C401.95 51.887 392.144 62.2453 381.746 65.2376C372.469 69.0545 361.993 66.0148 353.903 58.2631C346.318 50.8994 340.913 39.3676 340.783 25.4625C347.075 1.52246 326.773 -25.4588 326.214 -40.7089C329.363 -54.9285 313.504 -57.9525 306.926 -77.278C300.348 -96.6034 316.356 -104.105 306.61 -113.759C290.067 -129.17 282.029 -141.374 280.076 -150.851C272.52 -172.478 295.218 -180.964 321.312 -176.075C337.371 -173.663 350.797 -171.074 361.688 -171.349C375.259 -168.025 375.889 -192.955 386.438 -200.245C404.289 -211.537 413.437 -191.388 423.46 -209.33C428.119 -217.252 433.015 -225.84 438.191 -235.344C451.976 -257.725 466.407 -264.693 477.683 -264.053C497.048 -272.103 515.071 -255.061 521.996 -232.968C525.944 -219.666 526.087 -204.732 520.571 -191.976C511.791 -171.646 496.79 -152.474 503.185 -127.835C505.727 -113.692 540.628 -113.688 546.123 -89.4911C550.368 -73.203 540.929 -57.7721 546.432 -46.1132C552.196 -33.903 555.803 -23.7629 557.446 -18.2092Z" stroke="white"/>
<path d="M535.284 -27.8499C548.764 -7.13882 522.857 -0.195081 510.628 -10.0876C482.081 -32.9139 467.165 -29.3377 447.299 -21.0793C438.362 -20.5115 444.293 -3.4064 434.484 5.80815C424.675 15.0227 411.505 4.54619 408.427 14.6334C403.151 30.2655 394.781 37.8918 386.141 39.5299C378.776 42.1174 370.443 39.2848 364.208 32.7386C358.353 26.4839 354.439 16.9248 355.163 5.50589C363.413 -16.647 338.642 -43.6373 336.623 -57.4449C338.435 -68.9683 326.78 -72.0378 322.574 -87.0904C318.367 -102.143 331.604 -108.039 325.498 -114.99C314.448 -126.223 309.518 -134.92 308.999 -141.671C303.984 -157.747 322.156 -164.062 342.897 -160.747C356.085 -159.286 367.312 -158.115 376.257 -159.844C386.829 -158.024 387.704 -177.561 396.064 -183.982C409.972 -193.527 417.33 -179.193 425.384 -193.306L425.615 -193.686C429.553 -200.146 433.672 -206.901 437.986 -214.162C450.36 -232.011 463.091 -235.65 472.306 -233.033C487.098 -238.489 500.768 -225.034 505.964 -207.777C508.924 -197.128 508.904 -185.253 504.486 -175.067C496.433 -156.473 484.449 -140.317 491.071 -118.153C493.447 -106.576 520.533 -105.669 525.457 -86.545C529.445 -73.3668 523.125 -60.82 527.709 -51.1031C532.434 -41.088 534.735 -32.5688 535.284 -27.8499Z" stroke="white"/>
<path d="M512.321 -38.1171C520.377 -23.6213 501.882 -18.7545 492.809 -26.0972C466.223 -47.3121 453.532 -41.8603 437.735 -32.0259C431.443 -31.061 435.005 -18.65 428.047 -11.555C421.088 -4.46004 411.834 -10.5254 409.207 -3.49998C404.541 7.5288 397.674 12.3715 390.856 12.6346C385.459 13.9686 379.323 11.3457 374.977 6.0304C370.883 0.908896 368.474 -6.63305 370.033 -15.5056C380.158 -35.7457 351.047 -62.6298 347.561 -74.9235C348.006 -83.6868 340.634 -86.8036 338.808 -97.5112C336.981 -108.219 347.347 -112.46 344.914 -116.682C339.419 -123.697 337.618 -128.849 338.529 -132.84C336.066 -143.288 349.576 -147.373 364.825 -145.619C375.053 -145.099 384.008 -145.335 390.943 -148.498C398.448 -148.174 399.532 -162.216 405.636 -167.72C415.493 -175.448 421.031 -166.995 427.039 -177.193C430.36 -182.38 433.815 -187.506 437.397 -192.764C448.25 -205.971 459.186 -206.243 466.278 -201.65C476.385 -204.463 485.626 -194.644 489.081 -182.306C491.05 -174.361 490.883 -165.609 487.607 -158.051C480.362 -141.303 471.5 -128.266 478.335 -108.684C480.545 -99.7325 499.628 -97.8875 503.974 -83.9298C507.697 -73.9257 504.561 -64.3393 508.207 -56.6092C511.874 -48.8352 512.864 -41.9779 512.321 -38.1171Z" stroke="white"/>
<path d="M489.628 -47.4826C492.295 -39.1553 481.153 -36.3498 475.208 -41.1656C450.531 -60.8212 440.039 -53.4931 428.274 -42.0723C424.607 -40.71 425.818 -32.9545 421.688 -27.9589C417.558 -22.9633 412.191 -24.6441 410.009 -20.6574C405.943 -14.1968 400.564 -12.1203 395.548 -13.2279C392.101 -13.1409 388.144 -15.5599 385.671 -19.6584C383.324 -23.6601 382.41 -29.2055 384.8 -35.5555C396.801 -53.9219 363.318 -80.7628 358.365 -91.5727C357.448 -97.6024 354.329 -100.771 354.868 -107.167C355.408 -113.564 362.93 -116.163 364.151 -117.671C364.181 -120.492 365.493 -122.119 367.83 -123.366C367.904 -128.223 376.794 -130.093 386.596 -129.89C393.892 -130.306 400.595 -131.944 405.538 -136.54C409.998 -137.708 411.292 -146.297 415.158 -150.899C420.994 -156.83 424.727 -154.22 428.707 -160.535C431.346 -164.348 434.07 -167.738 436.843 -170.866C446.197 -179.469 455.364 -176.385 460.355 -169.813C465.813 -169.997 470.659 -163.784 472.387 -156.325C473.37 -151.061 473.058 -145.405 470.916 -140.453C464.467 -125.515 458.703 -115.563 465.765 -98.5161C467.814 -92.1626 478.958 -89.3794 482.736 -80.5436C486.202 -73.6831 486.231 -67.0278 488.95 -61.2628C491.57 -55.7075 491.257 -50.4944 489.628 -47.4826Z" stroke="white"/>
</svg>
