<svg width="792" height="187" viewBox="0 0 792 187" fill="none" xmlns="http://www.w3.org/2000/svg">
<path d="M212.088 267.073L231.171 167.001L211.891 133.606L125.726 117.49L127.105 57.3246L70.4856 0.959419L174.513 -49.8242L148.805 -94.3513L205.763 -144.861L294.972 -155.55L285.614 -232.707L454.213 -362.516L530.131 -231.022L584.622 -239.291L640.054 -143.279L634.509 -80.7081L740.089 -5.30053L726.033 47.3418L639.218 97.4641L611.966 157.725L516.983 168.036L441.281 211.743L451.191 280.233L335.207 347.197L212.088 267.073Z" fill="#292C36" stroke="white"/>
<path d="M388.928 29.1817L375.786 20.6645L366.588 4.73259L371.839 -13.1195L384.737 -24.4196L383.754 -32.6453L401.803 -46.524L409.889 -32.5187L421.012 -16.5128L432.281 -8.49469L430.767 -2.87815L421.477 2.4855L400.296 14.7146L401.34 22.0159L388.928 29.1817Z" fill="#292C36" stroke="white"/>
<path d="M224.948 248.583L242.058 155.881L223.553 123.829L144.218 108.266L145.693 52.0426L93.9251 -0.421413L190.446 -47.7332L166.64 -89.4679L219.911 -136.626L302.952 -147.026L294.625 -217.71L450.565 -336.994L521.072 -215L571.799 -222.017L623.834 -132.774L618.657 -74.8004L716.057 -4.97736L702.725 43.8218L622.231 90.2949L595.447 146.861L507.81 156.66L437.971 197.286L446.642 260.783L339.102 322.871L224.948 248.583Z" fill="#292C36" stroke="white"/>
<path d="M237.808 230.093L252.945 144.761L235.215 114.053L162.711 99.0429L164.281 46.7606L117.365 -1.80225L206.38 -45.6422L184.476 -84.5845L234.059 -128.391L310.932 -138.503L303.636 -202.713L446.918 -311.473L512.012 -198.978L558.976 -204.744L607.614 -122.27L602.805 -68.8928L692.026 -4.65427L679.417 40.3018L605.244 83.1256L578.927 135.997L498.637 145.284L434.661 182.828L442.092 241.332L342.997 298.545L237.808 230.093Z" fill="#292C36" stroke="white"/>
<path d="M250.668 211.602L263.831 133.641L246.877 104.276L181.203 89.819L182.869 41.4782L140.804 -3.18351L222.313 -43.5517L202.311 -79.7015L248.208 -120.157L318.913 -129.98L312.647 -187.716L443.271 -285.953L502.953 -182.956L546.153 -187.471L591.394 -111.765L586.953 -62.9855L667.994 -4.3316L656.11 36.7814L588.258 75.9559L562.407 125.133L489.463 133.907L431.351 168.37L437.542 221.881L346.892 274.219L250.668 211.602Z" fill="#292C36" stroke="white"/>
<path d="M263.53 193.113L274.72 122.522L258.541 94.4997L199.697 80.596L201.459 36.1967L164.246 -4.56386L238.249 -41.4602L220.149 -74.8177L262.358 -111.921L326.895 -121.456L321.66 -172.718L439.626 -260.431L493.896 -166.934L533.332 -170.197L575.176 -101.26L571.104 -57.0773L643.965 -4.00799L632.804 33.2619L571.273 68.7871L545.889 114.269L480.292 122.531L428.043 153.913L432.995 202.431L350.789 249.893L263.53 193.113Z" fill="#292C36" stroke="white"/>
<path d="M276.39 174.623L285.607 111.402L270.204 84.7237L218.189 71.3731L220.047 30.9152L187.685 -5.94418L254.182 -39.3688L237.984 -69.9337L276.506 -103.686L334.875 -112.932L330.671 -157.721L435.979 -234.909L484.837 -150.912L520.509 -152.922L558.956 -90.7546L555.252 -51.1692L619.933 -3.68439L609.497 29.7423L554.286 61.6183L529.369 103.405L471.119 111.155L424.733 139.456L428.445 182.981L354.683 225.568L276.39 174.623Z" fill="#292C36" stroke="white"/>
<path d="M289.251 156.134L296.493 100.283L281.866 74.9481L236.681 62.1505L238.635 25.6342L211.125 -7.32406L270.116 -37.2768L255.819 -65.0494L290.654 -95.4498L342.855 -104.408L339.682 -142.722L432.332 -209.387L475.778 -134.889L507.686 -135.648L542.735 -80.2488L539.4 -45.2605L595.901 -3.36029L586.189 26.2233L537.299 54.4501L512.849 92.5424L461.945 99.7796L421.423 124.999L423.895 163.532L358.578 201.243L289.251 156.134Z" fill="#292C36" stroke="white"/>
<path d="M302.113 137.644L307.382 89.164L293.53 65.1721L255.176 52.9276L257.226 20.3527L234.566 -8.70439L286.051 -35.1853L273.657 -60.1655L304.804 -87.2144L350.837 -95.8841L348.695 -127.725L428.687 -183.865L466.721 -118.867L494.865 -118.374L526.517 -69.7435L523.55 -39.3523L571.872 -3.03669L562.883 22.7038L520.314 47.2813L496.331 81.6789L452.774 88.4037L418.115 110.542L419.348 144.082L362.475 176.917L302.113 137.644Z" fill="#292C36" stroke="white"/>
<path d="M314.971 119.154L318.267 78.0437L305.19 55.395L273.666 43.7036L275.812 15.0702L258.004 -10.0857L301.983 -33.0948L291.49 -55.2826L318.951 -78.9799L358.815 -87.3612L357.704 -112.728L425.038 -158.345L457.66 -102.845L482.041 -101.101L510.295 -59.2391L507.697 -33.4451L547.838 -2.71403L539.574 19.1834L503.325 40.1116L479.809 70.8144L443.598 77.0269L414.804 96.0837L414.796 124.631L366.368 152.591L314.971 119.154Z" fill="#292C36" stroke="white"/>
<path d="M327.831 100.664L329.153 66.9243L316.853 45.619L292.158 34.4807L294.4 9.78871L281.443 -11.466L317.917 -31.0034L309.326 -50.3987L333.099 -70.7444L366.796 -78.8373L366.715 -97.7301L421.391 -132.823L448.601 -86.8229L469.218 -83.8268L494.075 -48.7338L491.845 -27.5369L523.807 -2.39043L516.266 15.6639L486.338 32.9428L463.289 59.9509L434.425 65.651L411.494 81.6266L410.247 105.181L370.263 128.266L327.831 100.664Z" fill="#292C36" stroke="white"/>
<path d="M340.693 82.1737L340.042 55.8044L328.517 35.8424L310.652 25.2572L312.99 4.50674L304.885 -12.8468L333.852 -28.9123L327.163 -45.5152L347.249 -62.5093L374.778 -70.3139L375.728 -82.7328L417.746 -107.302L439.544 -70.801L456.397 -66.5532L477.857 -38.229L475.995 -21.6293L499.777 -2.06729L492.961 12.1439L469.353 25.7735L446.771 49.0869L425.254 54.2746L408.186 67.1689L405.699 85.7305L374.16 103.94L340.693 82.1737Z" fill="#292C36" stroke="white"/>
<path d="M353.553 63.6841L350.929 44.685L340.179 26.0664L329.145 16.0342L331.578 -0.774751L328.325 -14.2272L349.786 -26.8209L344.999 -40.6313L361.397 -54.2739L382.758 -61.79L384.739 -67.7351L414.098 -81.7803L430.484 -54.7787L443.574 -49.2792L461.637 -27.7236L460.143 -15.7211L475.746 -1.74368L469.653 8.62437L452.367 18.6047L430.251 38.2234L416.08 42.8987L404.876 52.7118L401.149 66.2805L378.054 79.6142L353.553 63.6841Z" fill="#292C36" stroke="white"/>
<path d="M366.413 45.1935L361.815 33.5647L351.841 16.2894L347.637 6.81027L350.166 -6.05723L351.764 -15.6085L365.719 -24.7304L362.834 -35.7484L375.546 -46.0394L390.738 -53.2671L393.75 -52.7383L410.451 -56.2596L421.425 -38.7573L430.751 -32.0061L445.417 -17.2193L444.292 -9.81387L451.714 -1.42103L446.345 5.10391L435.38 11.435L413.731 27.3589L406.907 31.5219L401.566 38.2537L396.6 46.8295L381.949 55.2879L366.413 45.1935Z" fill="#292C36" stroke="white"/>
</svg>
